# xmcd
#
# Track frame offsets:
#	150
#	16155
#	31753
#	48156
#	65790
#	86189
#	100110
#	122964
#	145846
#	161995
#	175987
#	190141
#	206539
#	222122
#	236142
#
# Disc length: 3332 seconds
#
# Revision: 1
# Processed by: cddbd v1.5.2PL0 Copyright (c) Steve Scherf et al.
# Submitted via: EZCDAudioConverter 8.0.3.1
#
DISCID=d60d020f
DTITLE=Franziska - Herrlich Unperfekt (Deluxe Edition 2 CD-02)
DYEAR=2018
DGENRE=Saksa Iskelmä
TTITLE0=Ich Lauf
TTITLE1=Spiegelbild
TTITLE2=Für Mich Bestimmt
TTITLE3=Herrlich Unperfekt (Remix)
TTITLE4=Sie Wissen Nicht (Remix)
TTITLE5=Moment (Remix)
TTITLE6=Wer Bin Ich? (Maxi Version)
TTITLE7=Ich Lauf (Maxi Version)
TTITLE8=Du Machst Es Mir Nicht Leicht (Rock Version)
TTITLE9=Herrlich Unperfekt (Rock Version)
TTITLE10=Sie Wissen Nicht (Rock Version)
TTITLE11=So´n Augenblick (Rock Version)
TTITLE12=Spiegelbild (Remix)
TTITLE13=Herrlich Unperfekt (King Pop Edit)
TTITLE14=Herrlich Unperfekt (King Radio Edit)
EXTD=
EXTT0=
EXTT1=
EXTT2=
EXTT3=
EXTT4=
EXTT5=
EXTT6=
EXTT7=
EXTT8=
EXTT9=
EXTT10=
EXTT11=
EXTT12=
EXTT13=
EXTT14=
PLAYORDER=
